<svg version="1.0" xmlns="http://www.w3.org/2000/svg"
 width="150" height="150" viewBox="0 0 640.000000 640.000000"
 preserveAspectRatio="xMidYMid meet">

<g transform="translate(0.000000,640.000000) scale(0.100000,-0.100000)"
fill="#000000" stroke="none">
<path d="M0 4950 c0 -1443 0 -1450 20 -1452 11 -1 28 -2 38 -2 35 -2 49 -66
20 -102 -5 -7 -2 -16 7 -24 12 -10 15 -10 15 0 0 7 7 10 16 6 12 -4 14 -1 9
14 -7 23 3 25 58 9 20 -5 37 -16 37 -23 0 -13 -67 -46 -93 -46 -6 0 -13 -12
-14 -27 0 -15 -9 -33 -19 -40 -16 -12 -15 -13 12 -13 45 0 73 -11 68 -25 -3
-7 2 -15 11 -19 9 -3 13 -10 10 -16 -9 -15 -61 -12 -75 5 -8 9 -17 12 -24 7
-6 -5 -30 -8 -53 -8 l-43 2 0 -58 c0 -57 1 -58 28 -58 44 0 54 -12 47 -54 -9
-47 11 -49 30 -3 18 44 39 61 69 53 31 -8 35 -20 26 -83 -3 -29 -3 -59 2 -67
6 -10 3 -18 -9 -25 -17 -9 -17 -11 2 -25 19 -14 19 -15 2 -21 -12 -5 -16 -14
-12 -26 4 -11 2 -19 -4 -19 -8 0 -7 -6 1 -19 9 -15 9 -23 -1 -34 -9 -12 -9
-17 0 -23 8 -4 4 -11 -12 -20 -23 -13 -23 -13 14 -14 37 0 50 -13 22 -24 -8
-3 -12 -12 -9 -20 4 -10 -3 -17 -21 -22 -30 -7 -28 -28 3 -32 12 -2 22 -6 22
-10 -1 -19 -30 -42 -52 -42 -33 0 -58 -27 -37 -41 11 -7 10 -9 -6 -10 -11 -1
-30 0 -43 1 -12 1 -22 -3 -22 -9 0 -6 6 -11 13 -12 6 0 -3 -5 -20 -10 -32 -9
-45 -33 -22 -41 12 -4 111 6 145 15 11 3 26 2 33 -3 9 -5 5 -9 -13 -14 -14 -3
-38 -11 -53 -17 -26 -10 -27 -11 -10 -24 17 -12 16 -14 -11 -33 -15 -12 -40
-24 -55 -27 -15 -4 -27 -11 -27 -15 0 -14 36 -18 86 -9 72 12 153 11 134 -1
-8 -5 -28 -10 -43 -10 -16 0 -54 -8 -85 -17 l-57 -18 38 -3 c22 -2 53 1 69 7
41 15 58 14 58 -2 0 -14 -60 -47 -86 -47 -8 0 -42 -8 -74 -17 -59 -18 -60 -18
-60 -55 0 -39 6 -43 48 -32 13 4 21 13 20 22 -3 15 22 23 155 46 63 12 42 -12
-23 -26 -41 -8 -59 -16 -56 -25 3 -8 -15 -18 -52 -29 -49 -15 -98 -39 -67 -34
25 5 28 -1 5 -13 -32 -16 -39 -47 -11 -47 27 0 27 -20 1 -27 -17 -5 -20 -14
-20 -70 l0 -65 66 8 c84 8 79 -8 -6 -25 l-60 -12 0 -40 c0 -37 2 -39 30 -39
17 0 30 -4 30 -9 0 -13 -27 -21 -45 -15 -13 5 -15 -8 -15 -81 0 -79 2 -86 18
-80 9 3 40 13 69 20 28 7 60 18 71 24 19 10 132 11 132 0 0 -6 -220 -89 -237
-89 -4 -1 -18 -9 -31 -19 -20 -18 -22 -28 -22 -120 l0 -101 46 7 c38 5 46 3
42 -8 -2 -8 -23 -18 -46 -23 l-41 -10 -1 -273 c0 -151 4 -272 8 -269 4 2 14 1
21 -4 10 -6 8 -9 -8 -15 -21 -6 -21 -8 -21 -336 l0 -329 70 0 69 0 22 48 c11
26 41 94 65 152 62 147 84 188 120 225 21 21 33 45 37 76 7 43 6 43 -7 14 -7
-17 -20 -36 -29 -44 -15 -12 -15 -11 -3 15 8 16 22 63 31 104 14 63 31 128 51
199 10 32 14 0 6 -35 -6 -22 -13 -52 -17 -69 -6 -29 -6 -29 9 -10 15 19 16 14
12 -58 -3 -43 -2 -85 1 -93 6 -16 39 -19 48 -4 8 12 -26 180 -37 180 -4 0 0
24 9 53 9 28 16 61 15 72 -1 19 84 193 213 435 99 187 130 261 104 244 -24
-15 -98 -12 -104 3 -8 22 2 31 30 26 13 -3 41 -2 61 1 28 6 38 14 50 41 7 18
18 36 24 40 15 9 12 35 -5 35 -8 0 -19 -9 -25 -20 -6 -11 -20 -20 -31 -20 -11
0 -38 -9 -60 -21 -23 -11 -44 -18 -47 -14 -14 13 17 41 57 50 29 8 38 14 31
21 -15 15 10 34 55 41 26 4 40 2 46 -8 7 -11 9 -11 9 3 0 22 -41 33 -68 19
-12 -6 -45 -11 -74 -11 l-53 0 45 21 c39 18 90 27 157 29 17 0 27 12 43 48 11
26 39 63 60 83 45 41 48 49 20 49 -27 0 -92 -32 -80 -40 5 -3 -17 -6 -50 -7
-66 -2 -88 12 -38 22 18 4 55 18 81 31 27 13 55 24 63 24 8 0 14 5 14 10 0 6
-9 10 -20 10 -11 0 -20 7 -20 15 0 19 -8 19 -45 -1 -37 -20 -182 -33 -171 -15
5 7 -1 11 -16 11 -24 0 -72 42 -61 54 11 11 103 7 103 -5 0 -22 171 12 240 48
23 12 20 13 -40 14 l-65 1 35 13 c21 8 79 14 148 14 l112 1 -16 -25 c-9 -14
-14 -28 -11 -31 3 -3 10 4 17 15 11 22 35 28 45 12 3 -6 -8 -29 -24 -53 -20
-29 -26 -45 -18 -50 6 -4 15 -4 19 -2 18 11 6 -14 -27 -55 -20 -26 -45 -76
-59 -120 -14 -42 -32 -91 -41 -109 -29 -58 -37 -155 -24 -317 12 -149 21 -492
19 -718 -1 -114 13 -220 31 -243 12 -15 39 -167 39 -219 0 -22 12 -77 28 -122
l27 -83 179 0 178 0 -7 57 c-4 32 -10 144 -14 249 -5 157 -9 193 -22 207 -9 9
-19 14 -22 11 -3 -3 -4 3 -3 13 0 10 -4 17 -11 16 -14 -3 -104 181 -132 271
-19 62 -39 142 -101 416 -64 283 -84 358 -106 403 -29 56 -27 67 5 33 34 -36
97 -202 116 -303 9 -48 25 -119 35 -158 11 -38 26 -101 34 -140 21 -108 58
-227 66 -218 8 8 25 101 35 188 3 28 12 75 20 105 30 116 60 439 60 643 0 108
3 197 7 197 13 0 37 -31 47 -62 26 -82 28 -237 6 -442 -5 -49 -5 -67 3 -62 14
9 52 93 52 115 0 23 69 165 77 158 3 -4 5 -50 4 -104 -1 -88 -5 -106 -37 -183
-20 -47 -40 -89 -44 -95 -3 -5 -15 -32 -25 -60 -10 -27 -30 -77 -45 -110 -47
-100 -76 -205 -51 -180 6 6 30 59 56 119 51 124 212 406 230 406 8 0 -45 -102
-61 -118 -8 -7 -14 -17 -14 -22 0 -5 -6 -15 -14 -23 -23 -23 -76 -135 -76
-160 0 -24 22 -52 32 -42 6 6 -5 -47 -23 -117 -6 -24 -12 -63 -14 -88 -2 -25
-8 -67 -14 -93 -9 -40 -8 -62 6 -123 9 -41 21 -74 25 -74 4 0 8 -20 8 -44 0
-34 5 -48 21 -59 11 -8 19 -21 18 -28 -2 -8 0 -27 4 -44 15 -70 24 -406 11
-440 -6 -14 86 -15 909 -15 l916 0 4 23 4 22 2 -22 c1 -22 5 -23 71 -23 l70 0
0 93 c0 50 3 193 6 317 5 192 9 227 23 238 9 7 15 18 13 23 -3 11 15 12 20 0
2 -4 15 4 31 18 l27 26 -30 33 c-16 18 -30 43 -30 55 0 12 -6 30 -14 39 -9 13
-10 34 -5 84 6 43 5 73 -2 86 -13 24 -6 110 22 256 11 56 17 107 14 112 -3 6
-2 10 4 10 6 0 8 7 5 15 -4 8 -1 15 4 15 6 0 11 8 10 18 0 9 9 47 20 85 11 37
16 70 11 73 -5 3 -9 13 -8 22 0 14 2 13 8 -3 7 -16 10 -10 16 27 4 26 4 52 -1
59 -5 8 -3 10 6 4 10 -6 12 -3 8 13 -4 12 -2 20 3 16 5 -3 9 4 9 14 0 11 6 38
14 60 18 50 31 147 16 117 -7 -15 -8 -10 -3 20 7 47 7 48 36 52 12 2 48 22 80
44 58 40 163 82 245 98 67 13 38 -2 -73 -38 -100 -33 -160 -72 -151 -98 4 -9
-5 -13 -27 -14 -18 0 -26 -3 -19 -6 19 -7 15 -25 -17 -75 -16 -25 -27 -49 -24
-52 9 -9 53 5 102 31 24 13 46 21 49 18 8 -8 -20 -58 -42 -76 -10 -9 -16 -21
-12 -28 6 -9 11 -9 22 0 11 9 15 8 18 -2 18 -52 2 -106 -44 -150 -20 -19 -39
-42 -42 -50 -4 -11 -8 -12 -19 -2 -7 7 -21 13 -31 13 -10 0 -18 5 -18 10 0 6
8 10 18 10 13 0 14 2 4 9 -11 6 -10 10 3 15 23 8 2 35 -26 33 -14 -1 -19 -9
-19 -29 0 -20 -4 -26 -15 -22 -18 7 -19 0 -4 -27 9 -17 7 -21 -10 -26 -22 -6
-30 -25 -8 -20 7 1 11 -8 10 -25 -1 -19 4 -29 18 -33 28 -9 23 -25 -11 -36
-30 -11 -38 -23 -21 -33 11 -7 3 -43 -16 -72 -20 -31 -50 -149 -57 -225 -5
-58 -4 -68 14 -84 12 -10 40 -21 63 -24 37 -5 42 -9 45 -34 2 -15 8 -27 13
-27 5 0 9 -7 9 -15 0 -14 -43 -32 -67 -27 -7 2 -13 -4 -13 -13 0 -9 9 -15 24
-15 14 0 27 -4 30 -9 4 -5 24 -12 47 -16 28 -5 43 -13 48 -28 5 -12 18 -31 30
-41 11 -11 21 -25 21 -33 0 -13 26 -54 63 -98 29 -35 56 -95 43 -96 -6 0 -22
-2 -36 -3 -15 -2 -30 4 -37 15 -30 41 -203 102 -203 70 0 -6 17 -35 37 -64 20
-28 40 -68 44 -87 3 -19 10 -43 14 -52 6 -15 2 -18 -24 -18 -35 0 -36 -4 -16
-40 8 -14 14 -36 15 -50 0 -15 6 -32 12 -38 10 -10 10 -14 0 -21 -7 -4 -10
-15 -6 -25 6 -16 4 -17 -17 -6 -13 7 -39 26 -57 44 -27 26 -34 28 -42 16 -15
-23 -5 -60 34 -127 13 -24 10 -93 -6 -93 -5 0 -14 -5 -21 -10 -7 -6 -28 -24
-47 -40 -19 -16 -38 -30 -42 -30 -5 0 -8 -4 -8 -10 0 -5 15 -10 33 -10 22 0
40 9 60 29 15 16 27 34 27 40 0 5 13 9 30 8 29 -2 40 -20 20 -32 -5 -3 -15
-15 -20 -26 -11 -19 4 -19 1250 -19 l1260 0 0 1573 0 1574 -45 -3 c-25 -1 -45
2 -45 7 0 5 18 9 39 9 22 0 43 5 46 10 4 6 -10 10 -34 10 -22 0 -43 -4 -46
-10 -10 -17 -75 -12 -75 5 0 8 -4 15 -10 15 -5 0 -10 -8 -10 -18 0 -33 -78
-44 -277 -37 l-179 5 -22 -29 c-12 -17 -22 -37 -22 -45 0 -8 -4 -17 -9 -20 -5
-3 -7 -16 -4 -28 4 -14 0 -26 -12 -34 -17 -13 -16 -15 15 -25 31 -11 32 -13
15 -26 -41 -29 -105 -5 -77 30 7 8 6 35 -4 86 -8 40 -11 77 -8 82 3 5 29 9 57
9 l52 1 -28 15 c-18 10 -26 21 -23 30 4 11 -4 14 -34 14 -38 0 -39 -1 -42 -37
-2 -31 -7 -39 -26 -41 -13 -2 -29 3 -35 11 -14 17 -90 27 -132 17 -16 -4 -24
-8 -17 -9 17 -1 15 -36 -3 -51 -13 -10 -13 -15 -1 -32 10 -13 12 -28 6 -42
-10 -27 -5 -73 10 -91 10 -12 10 -18 1 -29 -9 -10 -9 -16 -1 -21 17 -10 -8
-35 -34 -35 -52 0 -76 54 -44 95 11 15 18 29 14 32 -3 3 -1 12 5 19 7 8 7 14
-1 19 -14 9 -13 52 3 58 8 3 5 12 -10 29 -13 13 -23 32 -23 41 0 14 -7 16 -40
11 -31 -5 -41 -3 -46 10 -7 19 -24 20 -60 4 l-28 -13 30 -6 c19 -3 28 -10 25
-20 -2 -8 -8 -33 -14 -56 -6 -24 -14 -43 -19 -43 -4 0 -8 -7 -8 -15 0 -19 -19
-19 -44 0 -11 8 -28 15 -38 15 -15 0 -17 -3 -8 -19 5 -11 7 -26 4 -34 -3 -8 2
-22 12 -31 14 -14 15 -22 5 -42 -9 -21 -8 -26 9 -32 l21 -8 -21 -22 c-11 -12
-29 -22 -39 -22 -17 0 -18 -6 -14 -42 3 -24 12 -47 20 -51 11 -7 11 -12 2 -23
-9 -12 -6 -14 22 -15 l34 -1 -42 -14 c-44 -16 -123 -9 -130 11 -2 6 13 28 34
50 21 23 32 40 25 43 -7 2 -12 15 -12 30 0 14 -8 34 -17 44 -13 14 -14 21 -5
30 7 7 12 22 12 33 0 12 3 25 6 28 4 4 8 19 10 34 2 16 5 45 8 66 2 20 0 37
-5 37 -5 0 -17 17 -28 38 -18 34 -22 37 -61 35 -24 0 -46 -6 -50 -13 -9 -14
-80 -16 -89 -2 -3 5 -23 15 -43 23 -30 10 -41 10 -50 1 -7 -7 -19 -12 -28 -12
-30 0 -53 -36 -46 -72 3 -18 6 -73 7 -123 1 -72 -2 -91 -16 -101 -10 -8 -12
-14 -6 -19 6 -3 11 -18 11 -32 0 -21 -3 -24 -22 -19 -13 3 -26 6 -29 6 -4 0
-10 11 -13 24 -3 13 -17 31 -31 40 -14 9 -25 23 -25 31 0 12 -14 15 -67 14
-51 -1 -69 2 -78 15 -21 28 -11 51 54 122 35 38 61 64 58 59 -3 -6 -3 -16 1
-22 5 -8 15 -4 31 13 l23 24 -26 0 c-14 0 -26 2 -26 5 0 3 16 38 36 77 l36 72
-17 90 c-9 50 -25 109 -35 131 -19 44 -62 91 -91 100 -20 7 -24 22 -13 50 5
12 15 15 48 10 22 -4 87 -2 144 4 75 8 128 8 200 -1 93 -11 346 -18 737 -19
138 0 202 -5 275 -20 87 -17 108 -18 246 -7 142 10 294 3 349 -18 13 -6 15
142 15 1410 l0 1416 -3200 0 -3200 0 0 -1450z m2623 360 c7 -29 1 -24 -17 11
-12 23 -12 28 -2 20 8 -7 16 -21 19 -31z m-29 -26 c9 -24 2 -26 -12 -4 -7 11
-8 20 -3 20 5 0 12 -7 15 -16z m366 -194 c0 -5 13 -10 29 -10 33 0 48 -32 25
-51 -20 -16 -13 -31 16 -36 32 -5 38 -12 19 -26 -9 -7 -14 -17 -12 -24 2 -7
-1 -22 -8 -34 -9 -17 -9 -24 0 -27 6 -2 11 -18 11 -36 0 -45 23 -119 49 -155
12 -17 20 -34 18 -38 -5 -8 17 -34 28 -33 3 0 5 -3 6 -7 0 -5 5 -14 11 -20 6
-7 7 -13 2 -13 -78 -4 -133 -27 -163 -68 -11 -16 -39 -37 -63 -47 -54 -24 -55
-24 -40 -34 7 -4 14 -30 15 -57 1 -42 -3 -56 -33 -96 -19 -26 -43 -50 -52 -53
-9 -3 -26 -31 -38 -62 -11 -30 -34 -82 -50 -115 -30 -59 -30 -59 -10 -81 24
-25 25 -40 4 -72 -15 -23 -14 -25 17 -52 66 -57 89 -83 89 -97 0 -25 -15 -26
-35 -3 l-18 21 -16 -24 c-9 -13 -24 -31 -35 -40 -10 -8 -43 -39 -72 -67 -30
-29 -57 -53 -62 -53 -4 0 -8 -34 -10 -75 -1 -41 -1 -75 1 -75 3 0 26 10 52 21
42 18 50 19 59 7 11 -14 45 -32 58 -30 3 1 9 -5 11 -13 4 -9 -4 -16 -24 -20
-29 -7 -37 -19 -19 -30 6 -4 8 -10 5 -15 -3 -5 3 -15 15 -22 11 -7 20 -17 20
-23 0 -5 21 -11 46 -12 58 -3 65 -9 35 -32 -19 -15 -22 -23 -16 -50 4 -18 14
-35 23 -39 10 -3 22 -11 28 -17 16 -15 12 -74 -5 -80 -10 -4 -10 -9 -2 -19 8
-10 8 -16 -3 -26 -17 -13 -76 -4 -88 14 -6 8 -11 7 -18 -4 -6 -10 -10 -11 -10
-2 0 6 -4 12 -10 12 -5 0 -10 -7 -10 -16 0 -12 -5 -11 -19 7 -17 20 -23 22
-39 12 -18 -11 -22 -7 -43 49 -12 34 -38 81 -56 105 -19 24 -31 49 -27 56 4 7
4 9 -1 5 -5 -5 -18 7 -30 25 -41 60 -64 143 -75 264 -6 65 -15 159 -20 210
-14 127 -13 187 6 300 8 54 13 118 10 143 -21 165 -16 193 38 208 47 14 169 1
182 -19 3 -5 10 -9 15 -9 6 0 8 4 5 9 -4 5 7 12 24 16 20 4 28 11 23 18 -4 7
-8 14 -9 17 -12 38 -18 49 -25 44 -5 -2 -19 2 -31 10 -13 8 -60 17 -106 21
-95 8 -91 -2 -40 120 39 94 80 165 146 255 50 68 78 99 140 153 40 36 162 64
162 37z m390 -610 c0 -4 10 -11 23 -14 l22 -7 -22 -11 c-24 -12 -30 -32 -13
-43 25 -16 -6 -22 -82 -18 -80 5 -101 1 -170 -35 -18 -9 -6 36 15 55 31 28 41
33 116 58 67 23 111 29 111 15z m-128 -111 c-23 -4 -48 -11 -55 -15 -8 -5 -7
-2 2 9 9 11 27 17 55 16 l41 -1 -43 -9z m-121 -102 c-25 -26 -28 -10 -3 21 9
12 19 16 21 11 2 -6 -6 -21 -18 -32z m194 -55 c23 -6 31 -10 18 -11 -50 -2
-29 -31 22 -31 13 0 27 -5 30 -10 4 -6 22 -17 41 -25 26 -11 34 -20 34 -39 0
-15 9 -31 20 -38 36 -23 25 -41 -20 -34 -49 8 -94 -10 -67 -26 28 -15 20 -30
-13 -23 -35 8 -42 -10 -7 -19 26 -6 30 -36 9 -73 -15 -28 -16 -57 0 -47 8 5 9
-5 5 -34 -3 -23 -1 -42 3 -42 15 0 17 -104 3 -139 -11 -28 -11 -36 -1 -43 10
-6 10 -10 -1 -17 -7 -5 -10 -14 -6 -20 4 -7 4 -19 1 -27 -5 -13 -9 -12 -27 5
-17 16 -19 23 -11 34 16 19 -9 53 -32 44 -11 -4 -24 2 -39 19 -12 15 -36 40
-52 58 -17 17 -43 50 -59 74 l-29 42 19 43 c10 23 21 44 25 47 3 3 9 17 13 32
4 18 11 25 20 22 8 -3 19 3 26 15 9 18 17 20 49 15 24 -4 41 -2 45 5 5 7 -4
11 -24 11 -37 0 -73 17 -65 31 4 5 0 9 -8 9 -21 0 -40 49 -26 66 8 10 5 20
-15 41 -21 23 -25 34 -19 65 6 40 3 42 -52 39 -19 -1 -19 0 -1 7 18 8 91 -3
191 -26z m-1188 -104 c-3 -7 -5 -2 -5 12 0 14 2 19 5 13 2 -7 2 -19 0 -25z m0
-105 c-4 -32 -7 -103 -8 -158 -2 -131 -4 -134 -71 -124 -68 11 -108 3 -108
-21 0 -29 -19 -34 -38 -11 -13 15 -31 21 -72 22 -64 3 -118 25 -102 41 8 8 8
17 1 30 -8 15 -6 18 11 18 11 0 20 -4 20 -10 0 -5 18 -10 40 -10 24 0 39 4 37
11 -1 6 13 20 31 30 17 10 33 15 33 11 1 -4 4 8 8 27 6 35 31 56 31 27 0 -9 4
-16 10 -16 16 0 32 41 27 67 -3 18 1 27 17 33 11 4 24 6 27 4 4 -2 12 3 19 11
7 8 18 15 25 15 8 0 16 14 20 30 5 21 12 30 27 30 19 0 20 -4 15 -57z m2031 5
c-6 -18 -28 -21 -28 -4 0 9 7 16 16 16 9 0 14 -5 12 -12z m-18 -58 c0 -5 -2
-10 -4 -10 -3 0 -8 5 -11 10 -3 6 -1 10 4 10 6 0 11 -4 11 -10z m111 -112 c4
-86 2 -198 -4 -198 -11 0 -101 22 -106 26 -1 1 8 18 22 36 14 18 35 59 47 91
20 53 39 74 41 45z m-3211 -83 c0 -18 155 -32 175 -15 11 9 36 9 107 1 51 -6
111 -12 133 -14 23 -1 39 -7 38 -13 -3 -14 42 -21 172 -28 l100 -5 -60 13
c-51 11 -55 14 -25 15 50 1 110 -10 110 -21 0 -5 -4 -6 -10 -3 -5 3 -10 1 -10
-4 0 -6 6 -11 13 -11 6 -1 43 -5 82 -10 63 -8 74 -6 109 13 29 16 40 19 43 10
3 -7 14 -13 26 -13 54 0 67 -11 67 -51 0 -22 4 -39 9 -39 5 0 -16 -25 -46 -56
-30 -32 -62 -73 -72 -93 -27 -53 -51 -139 -51 -185 0 -69 6 -68 -219 -63 -111
3 -205 8 -208 11 -3 3 -11 -1 -17 -9 -9 -12 -23 -13 -76 -5 -36 5 -153 10
-260 11 -118 0 -200 5 -208 11 -8 7 -10 24 -7 47 6 34 5 35 -9 17 -9 -11 -16
-31 -16 -45 l0 -26 -87 2 c-49 1 -95 2 -103 2 -8 1 -42 0 -75 0 -33 -1 -106 0
-162 1 -102 3 -103 3 -117 31 -13 27 -12 39 6 39 4 0 8 -7 8 -15 0 -24 56 -20
63 5 3 11 1 18 -4 14 -12 -7 -11 3 1 25 8 17 5 18 -41 14 -28 -2 -59 -8 -69
-13 -22 -12 -30 -4 -30 28 0 17 4 23 15 18 25 -9 45 4 45 30 0 13 4 24 9 24 5
0 11 10 13 23 2 17 9 21 28 19 31 -3 62 -32 42 -39 -10 -4 -8 -9 5 -19 26 -19
43 -17 43 6 0 14 7 20 23 20 32 0 67 11 67 20 0 5 -15 4 -32 -1 -57 -16 -60
-14 -52 39 4 26 11 49 15 50 5 2 6 9 2 15 -9 15 -14 32 -20 80 -5 36 -4 38 41
57 27 13 55 18 70 14 18 -4 26 -1 30 14 10 29 98 64 141 56 23 -4 39 -2 48 7
19 19 187 14 187 -6z m1830 -134 c0 -5 -7 -11 -15 -15 -15 -5 -20 5 -8 17 9
10 23 9 23 -2z m-89 -17 c7 -8 20 -13 30 -11 12 3 16 0 12 -9 -3 -9 -18 -12
-43 -10 -30 3 -45 -3 -79 -31 -22 -19 -39 -39 -35 -44 3 -5 -2 -9 -10 -9 -16
0 -34 46 -23 57 20 19 105 71 118 72 9 1 22 -6 30 -15z m485 -145 c8 -16 14
-33 14 -39 0 -19 -28 -10 -49 16 -17 22 -19 35 -12 73 2 9 34 -25 47 -50z
m-2976 -140 c0 -5 -4 -9 -9 -9 -5 0 -16 -3 -25 -6 -10 -4 -16 -1 -16 9 0 9 10
15 25 15 14 0 25 -4 25 -9z m75 -38 c3 -5 -1 -16 -9 -24 -8 -8 -12 -18 -8 -21
10 -11 -20 -26 -50 -26 -19 0 -28 5 -28 16 0 8 -4 13 -9 10 -4 -3 -6 6 -3 19
l4 25 25 -20 c33 -25 43 -25 36 0 -4 16 -2 19 12 13 13 -4 16 -3 11 5 -4 7 -3
12 3 12 5 0 12 -4 16 -9z m1582 -133 c-3 -8 -6 -5 -6 6 -1 11 2 17 5 13 3 -3
4 -12 1 -19z m4359 -21 c2 -2 -2 -18 -9 -36 -10 -26 -16 -31 -34 -26 -18 4
-21 2 -16 -11 5 -15 2 -16 -25 -11 -27 6 -32 4 -32 -13 0 -17 -4 -19 -27 -14
-16 4 -33 11 -39 16 -6 4 -19 6 -28 2 -23 -9 -32 24 -12 44 12 12 19 14 24 6
10 -17 87 -22 101 -7 8 9 6 15 -10 24 -36 19 8 41 70 34 18 -2 35 -6 37 -8z
m-4671 -22 c33 1 120 4 193 8 86 4 132 3 132 -3 0 -6 21 -54 47 -108 50 -104
51 -109 33 -252 -5 -41 -12 -106 -14 -145 l-5 -70 46 50 c25 28 52 66 60 85
12 27 59 110 79 139 2 2 22 -4 46 -14 24 -9 54 -22 68 -27 l25 -10 -23 -9
c-13 -5 -33 -4 -49 2 -30 11 -58 5 -48 -12 4 -6 17 -8 30 -5 17 4 24 1 28 -14
3 -11 13 -20 24 -20 34 0 93 -21 93 -33 0 -7 -19 -50 -42 -95 -37 -72 -43 -93
-43 -147 0 -60 -1 -62 -20 -53 -11 6 -40 27 -64 47 -64 52 -94 71 -103 65 -5
-3 -31 0 -58 7 -42 11 -52 10 -74 -4 -14 -9 -60 -30 -103 -47 -43 -17 -112
-45 -153 -64 -41 -19 -111 -46 -155 -59 -158 -50 -219 -81 -325 -166 -32 -26
-95 -28 -108 -4 -9 15 -17 16 -76 5 -36 -7 -77 -10 -91 -6 -16 4 -32 1 -43 -8
-15 -12 -156 -48 -304 -76 -29 -5 -70 -5 -105 0 -32 5 -84 7 -115 3 -38 -4
-58 -2 -58 5 0 5 17 10 38 10 20 0 60 7 87 14 49 14 49 14 15 16 -19 1 -44 5
-55 9 -19 8 98 20 195 21 37 1 42 3 27 11 -10 6 -30 8 -45 4 -26 -6 -26 -6 -7
10 19 15 14 16 -70 10 -150 -10 -189 -9 -193 3 -2 8 15 12 54 12 53 0 56 1 38
15 -18 13 -16 14 23 15 23 0 45 5 48 10 4 6 -33 10 -104 10 -92 0 -111 3 -111
15 0 9 9 15 25 15 14 0 25 5 25 10 0 6 10 10 22 10 12 0 18 3 14 8 -4 4 -16 7
-27 7 -10 0 -18 5 -16 10 1 6 48 10 112 11 61 1 157 5 215 9 58 4 140 8 182 9
42 1 80 5 85 10 4 5 -11 6 -34 3 -26 -3 -43 -1 -43 5 0 6 -34 8 -92 5 -274
-16 -343 -18 -328 -8 8 6 23 11 33 11 9 0 17 5 17 11 0 8 -15 10 -45 7 -32 -4
-48 -1 -57 10 -11 13 -4 14 55 10 42 -2 72 -9 76 -17 6 -10 21 -11 52 -7 53 8
102 13 147 15 17 0 32 5 32 10 0 8 -20 13 -107 27 -21 3 -52 12 -70 20 -17 8
-37 14 -45 14 -10 0 -9 3 2 10 8 5 40 10 70 10 39 0 51 3 40 10 -8 5 -37 10
-63 10 -30 0 -46 4 -42 10 3 6 15 10 26 10 11 0 17 5 14 10 -3 6 -23 10 -43
10 -28 0 -33 3 -22 10 13 8 12 10 -2 10 -10 0 -18 -5 -18 -10 0 -7 -6 -8 -17
-2 -9 5 -33 7 -53 5 -37 -5 -80 9 -80 27 0 6 11 10 25 10 18 0 25 5 25 19 0
14 -10 20 -43 26 -38 7 -39 8 -17 15 14 4 24 12 22 19 -1 7 2 19 8 26 18 22
21 81 5 112 -20 37 -19 43 5 43 28 0 25 25 -5 48 -14 11 -25 23 -25 27 0 4 11
4 25 1 28 -7 33 5 10 24 -10 8 -12 17 -5 30 5 9 5 21 0 26 -4 5 -10 20 -12 34
-3 24 0 25 51 28 38 2 58 -1 71 -13 17 -15 20 -15 42 -1 34 22 220 36 328 24
103 -11 97 -11 192 2 52 6 86 6 103 0 15 -6 32 -7 38 -3 7 5 39 9 72 9 33 1
90 3 127 4 37 1 71 -1 77 -4 5 -3 24 1 42 9 19 8 43 11 54 7 11 -4 47 -7 80
-7z m4415 -34 c0 -17 4 -32 9 -35 17 -11 -4 -61 -25 -61 -16 0 -19 7 -19 50
-1 49 8 75 26 75 5 0 9 -13 9 -29z m-1185 -64 c0 -1 9 -12 19 -24 l19 -23 -52
0 c-58 0 -67 19 -15 32 22 6 19 6 -13 4 -42 -4 -66 7 -41 18 11 4 83 -2 83 -7z
m-2005 -27 c0 -5 -2 -10 -4 -10 -3 0 -8 5 -11 10 -3 6 -1 10 4 10 6 0 11 -4
11 -10z m3305 0 c3 -5 -1 -10 -9 -10 -9 0 -16 5 -16 10 0 6 4 10 9 10 6 0 13
-4 16 -10z m81 -27 c30 -41 22 -99 -14 -106 -15 -3 -28 -4 -30 -2 -2 2 -4 28
-4 58 -1 82 14 97 48 50z m-1041 -43 c0 -19 -45 -26 -56 -9 -12 20 0 30 29 27
16 -2 27 -9 27 -18z m795 10 c0 -5 -4 -10 -10 -10 -5 0 -10 5 -10 10 0 6 5 10
10 10 6 0 10 -4 10 -10z m-1103 -25 c9 -20 8 -27 -4 -33 -18 -11 -63 -3 -63
10 0 5 -6 5 -16 0 -18 -10 -54 -5 -54 7 0 8 85 38 110 40 8 0 20 -10 27 -24z
m-187 -6 c0 -5 -4 -9 -10 -9 -5 0 -10 7 -10 16 0 8 5 12 10 9 6 -3 10 -10 10
-16z m1007 5 c27 -7 36 -29 23 -55 -16 -28 -61 -24 -84 8 -19 25 -19 26 -1 39
21 15 30 16 62 8z m-2721 -29 c15 -14 25 -25 22 -25 -13 0 -68 33 -68 41 0 16
18 10 46 -16z m153 -14 c25 -11 34 -11 46 -1 12 10 21 10 45 0 16 -7 30 -16
30 -21 0 -5 7 -9 15 -9 8 0 15 -4 15 -10 0 -5 -13 -10 -29 -10 -16 0 -34 -6
-40 -14 -9 -11 -6 -15 16 -19 15 -3 32 -2 38 1 27 17 45 11 45 -13 0 -16 -6
-25 -15 -25 -8 0 -14 5 -12 11 1 6 -4 14 -11 16 -7 3 -10 -1 -6 -10 3 -8 -2
-17 -13 -21 -14 -6 -15 -9 -3 -16 8 -5 22 -4 33 2 13 6 22 7 29 0 12 -12 2
-33 -15 -31 -41 5 -47 -1 -44 -37 5 -44 -17 -57 -41 -24 -29 39 -66 71 -97 85
-19 9 -24 14 -12 14 24 1 21 13 -8 41 -14 13 -24 28 -23 34 3 18 -13 56 -23
56 -6 0 -8 4 -5 8 7 11 48 8 85 -7z m900 -65 c-80 -76 -144 -173 -216 -323
-53 -114 -80 -154 -42 -65 35 82 94 194 143 270 52 81 161 200 173 188 4 -4
-22 -35 -58 -70z m754 57 c-7 -2 -19 -2 -25 0 -7 3 -2 5 12 5 14 0 19 -2 13
-5z m-567 -51 c-24 -68 -56 -123 -117 -200 -32 -41 -59 -83 -59 -94 0 -11 -13
-45 -30 -76 -16 -31 -44 -88 -61 -127 -48 -108 -52 -115 -57 -111 -2 3 10 34
27 69 17 36 31 68 31 71 0 4 18 44 40 90 22 46 40 89 40 97 0 8 30 59 65 114
36 55 77 124 92 153 32 61 48 69 29 14z m1174 9 c0 -17 -20 -23 -48 -16 -25 7
-25 8 -7 15 28 12 55 12 55 1z m334 -4 c17 -12 17 -14 2 -20 -9 -4 -16 -18
-16 -33 0 -25 -2 -26 -36 -21 -20 3 -39 8 -41 11 -11 11 -5 59 8 67 21 13 63
11 83 -4z m-874 -17 c0 -5 -4 -10 -10 -10 -5 0 -10 5 -10 10 0 6 5 10 10 10 6
0 10 -4 10 -10z m-45 -30 c3 -5 -1 -10 -9 -10 -8 0 -18 5 -21 10 -3 6 1 10 9
10 8 0 18 -4 21 -10z m-2411 -16 c59 -20 53 -28 -13 -19 -34 5 -51 12 -51 21
0 18 6 18 64 -2z m1856 -3 c0 -5 -18 -40 -40 -77 -45 -77 -49 -103 -20 -111
27 -7 25 -27 -3 -40 -16 -7 -29 -8 -41 -1 -13 7 -23 5 -37 -8 -10 -9 -22 -14
-26 -10 -4 4 -1 11 6 15 7 5 11 13 8 18 -7 11 35 81 76 127 14 17 34 45 44 63
17 31 33 43 33 24z m-1725 -41 c15 -6 8 -9 -28 -9 -30 -1 -46 3 -42 9 7 12 42
12 70 0z m3195 -10 c0 -5 -9 -10 -21 -10 -11 0 -17 5 -14 10 3 6 13 10 21 10
8 0 14 -4 14 -10z m-3280 -30 c0 -5 -9 -10 -19 -10 -17 0 -40 -36 -29 -44 30
-23 80 -46 87 -42 10 7 144 -61 203 -103 263 -187 332 -246 404 -347 56 -79
311 -600 385 -789 39 -98 72 -250 68 -309 -3 -51 0 -66 16 -66 13 0 14 -43 9
-337 -4 -277 -17 -526 -23 -450 0 9 -6 17 -12 17 -6 0 -10 16 -8 38 4 69 -1
775 -6 771 -2 -3 -5 -44 -6 -92 -1 -48 -5 -90 -10 -93 -13 -8 -15 268 -2 310
3 12 1 16 -6 12 -6 -4 -11 -1 -11 8 0 8 -6 30 -14 48 -8 18 -18 42 -22 53 -6
17 -8 14 -13 -15 l-6 -35 -25 49 c-23 46 -137 176 -154 176 -4 0 -29 23 -54
52 -26 29 -74 80 -108 113 -33 33 -65 67 -70 76 -5 9 -37 47 -71 85 -98 109
-111 125 -161 193 -26 36 -56 90 -67 120 -18 49 -28 61 -83 99 -35 23 -69 42
-75 41 -8 0 -8 -2 1 -6 6 -2 9 -10 6 -15 -5 -7 -2 -8 5 -3 7 4 20 -1 31 -13
20 -22 17 -32 -11 -32 -10 0 -21 -4 -24 -10 -3 -5 0 -7 7 -5 9 4 15 -5 17 -27
8 -66 6 -91 -6 -95 -7 -3 -13 3 -13 12 0 15 -2 15 -17 -1 -13 -13 -14 -19 -5
-22 6 -2 12 -11 12 -19 0 -14 2 -14 18 0 35 32 53 17 31 -25 -9 -16 -8 -23 2
-29 11 -7 11 -9 -1 -9 -9 0 -11 -3 -5 -8 18 -13 35 -51 35 -77 0 -26 28 -67
41 -59 13 7 29 -60 27 -110 -1 -36 3 -51 15 -58 11 -5 17 -20 15 -36 -2 -34
11 -92 21 -92 26 0 87 -138 106 -240 4 -19 15 -57 25 -85 10 -27 32 -104 49
-170 16 -66 39 -147 51 -179 13 -37 24 -95 27 -150 3 -50 11 -112 18 -137 12
-42 13 -155 1 -166 -14 -14 -36 9 -36 36 0 17 -7 48 -15 69 -9 22 -17 52 -18
68 -2 19 -8 29 -18 28 -21 -2 -22 36 -1 44 13 5 10 8 -12 12 -16 3 -31 11 -34
19 -3 9 0 12 10 9 10 -4 14 3 14 28 0 20 -3 29 -8 21 -6 -9 -10 -9 -18 3 -9
13 -11 13 -20 0 -8 -13 -11 -12 -25 5 -28 36 -32 49 -39 115 -10 99 -88 332
-123 368 -7 7 -13 21 -13 31 0 18 -19 47 -58 88 -18 20 -21 28 -11 39 7 8 9
18 5 21 -4 4 -11 1 -16 -7 -8 -12 -10 -12 -16 3 -3 9 -3 24 0 33 5 14 4 15 -8
5 -16 -13 -32 1 -21 19 9 15 -27 59 -50 61 -17 1 -17 2 -2 6 13 3 16 11 11 31
-9 36 -14 40 -14 13 0 -12 -7 -24 -15 -27 -8 -4 -12 -11 -9 -16 4 -6 -1 -8
-14 -4 -11 4 -23 2 -27 -4 -12 -19 -14 -92 -3 -118 6 -15 12 -34 13 -42 10
-54 29 -138 35 -155 16 -43 60 -234 60 -262 0 -16 8 -40 17 -53 13 -18 18 -47
19 -108 1 -45 -2 -85 -7 -88 -5 -3 -9 5 -9 17 0 12 -8 28 -17 35 -10 7 -18 16
-18 21 -2 33 -29 81 -55 95 -17 9 -35 30 -42 45 -22 51 -74 113 -85 102 -7 -7
-14 6 -23 43 -6 29 -18 80 -26 113 -20 89 -54 313 -54 366 0 26 -7 66 -16 90
-20 59 -24 162 -7 227 7 30 11 57 9 61 -3 4 -6 40 -8 79 -1 40 -4 72 -6 72 -3
0 -11 -8 -19 -17 -13 -17 -13 -16 -4 2 5 11 18 29 29 41 10 11 51 63 90 115
39 51 83 110 98 129 24 31 21 29 -19 -10 -26 -24 -50 -52 -53 -62 -3 -10 -9
-18 -14 -18 -13 0 -20 31 -20 86 1 74 4 93 11 88 17 -10 19 17 3 41 -23 35
-14 77 35 181 23 47 41 92 41 100 0 8 10 14 25 14 14 0 25 -4 25 -10z m3240
-5 c0 -9 6 -12 15 -9 8 4 15 2 15 -2 -1 -23 -22 -39 -54 -41 -41 -2 -48 17
-19 49 19 22 43 24 43 3z m-635 -9 c49 -13 50 -13 24 -25 -32 -16 -109 2 -109
24 0 18 20 19 85 1z m725 -20 c0 -3 -4 -8 -10 -11 -5 -3 -10 -1 -10 4 0 6 5
11 10 11 6 0 10 -2 10 -4z m-976 -22 c19 -7 21 -30 3 -37 -17 -6 -32 3 -40 26
-7 18 8 22 37 11z m241 -34 c0 -11 -8 -14 -30 -11 -37 4 -47 10 -39 22 9 16
69 6 69 -11z m-630 -29 c-3 -12 -11 -21 -16 -21 -5 0 -9 -7 -9 -15 0 -21 -50
-16 -74 7 -19 18 -19 18 0 18 11 0 38 9 60 19 44 22 48 21 39 -8z m1830 19 c3
-6 4 -18 1 -28 -5 -15 -17 -18 -66 -18 -58 1 -77 10 -44 23 8 3 13 11 11 17
-6 15 89 20 98 6z m-1355 -16 c0 -2 -12 -4 -26 -4 -14 0 -23 4 -20 9 6 8 46 4
46 -5z m1130 -4 c0 -5 -4 -10 -10 -10 -5 0 -10 5 -10 10 0 6 5 10 10 10 6 0
10 -4 10 -10z m78 -6 c-10 -10 -23 -14 -37 -9 -30 9 -16 25 22 25 29 0 30 -1
15 -16z m-5931 0 c-3 -3 -12 -4 -19 -1 -8 3 -5 6 6 6 11 1 17 -2 13 -5z m343
-5 c0 -5 -13 -9 -29 -9 -17 0 -33 -4 -36 -10 -3 -5 3 -10 14 -10 12 0 21 -4
21 -10 0 -5 -4 -10 -9 -10 -5 0 -22 -3 -39 -6 -24 -5 -32 -2 -41 14 -17 32 8
50 69 50 27 0 50 -4 50 -9z m3755 -20 c-14 -21 7 -60 45 -85 49 -33 51 -47 5
-42 -32 4 -40 -2 -36 -26 1 -4 -6 -14 -15 -21 -16 -11 -16 -13 6 -25 13 -7 35
-16 49 -21 24 -7 25 -7 4 -8 -13 -1 -23 -7 -23 -15 0 -9 8 -12 24 -9 13 3 27
-1 31 -8 6 -8 4 -11 -7 -6 -9 3 -20 1 -25 -4 -5 -5 -25 -10 -46 -11 -29 -2
-36 -6 -31 -20 3 -11 -3 -21 -17 -28 -29 -16 -151 -33 -158 -22 -3 5 -21 12
-38 15 -25 5 -33 3 -33 -8 0 -8 6 -15 13 -15 7 0 17 -8 24 -19 10 -16 7 -22
-20 -45 -52 -42 -85 -66 -90 -66 -10 0 35 136 49 146 10 8 11 13 4 16 -8 2 -8
12 1 33 7 17 13 35 14 40 15 66 68 179 79 168 4 -4 4 -1 1 8 -3 8 1 23 9 34
15 19 15 19 15 -10 1 -49 -16 -108 -33 -117 -18 -10 -22 -38 -6 -38 6 0 10 8
10 18 0 15 2 15 11 2 9 -13 10 -12 5 3 -4 12 0 17 14 17 18 0 60 48 60 69 0 6
5 11 10 11 6 0 16 12 23 27 13 31 37 58 58 66 20 8 21 8 14 -4z m-4020 -19
c-3 -5 -11 -10 -16 -10 -6 0 -7 5 -4 10 3 6 11 10 16 10 6 0 7 -4 4 -10z
m4350 -36 c11 -12 13 -20 6 -27 -6 -6 -11 -18 -11 -26 0 -11 3 -11 19 3 16 15
19 15 24 2 10 -26 -21 -46 -69 -46 -24 0 -52 4 -62 9 -9 5 -26 12 -37 16 -18
5 -17 8 10 29 15 12 25 28 21 34 -6 10 13 16 66 21 9 0 24 -6 33 -15z m-4075
-4 c0 -6 -28 -10 -64 -10 -36 0 -68 5 -71 10 -4 6 20 10 64 10 41 0 71 -4 71
-10z m4289 -26 c2 -2 -10 -4 -27 -4 -18 0 -32 5 -32 10 0 9 47 4 59 -6z
m-4219 -4 c0 -5 -9 -10 -19 -10 -11 0 -23 5 -26 10 -4 6 5 10 19 10 14 0 26
-4 26 -10z m-240 -30 c-24 -8 -23 -8 8 -9 17 -1 32 -6 32 -12 0 -7 -9 -9 -22
-5 -13 3 -34 6 -48 6 -24 1 -24 1 -6 15 11 8 29 15 40 14 18 -1 18 -2 -4 -9z
m-120 -10 c0 -5 -6 -10 -14 -10 -8 0 -18 5 -21 10 -3 6 3 10 14 10 12 0 21 -4
21 -10z m3508 -95 c-6 -14 -13 -23 -15 -21 -5 5 15 46 22 46 3 0 -1 -11 -7
-25z m-3478 -15 c0 -5 -4 -10 -10 -10 -5 0 -10 5 -10 10 0 6 5 10 10 10 6 0
10 -4 10 -10z m3441 -67 c-11 -21 -20 -35 -21 -31 0 12 33 78 38 74 2 -2 -6
-21 -17 -43z m-2387 -38 c-4 -8 -9 -15 -13 -15 -4 0 -16 -7 -27 -16 -19 -15
-19 -16 1 -10 19 6 19 6 1 -9 -18 -14 -36 -12 -36 4 0 6 69 61 77 61 1 0 0 -7
-3 -15z m2569 -68 c-14 -43 -27 -77 -28 -75 -5 5 21 100 36 131 22 48 19 23
-8 -56z m-212 36 c-12 -20 -14 -14 -5 12 4 9 9 14 11 11 3 -2 0 -13 -6 -23z
m-2548 10 c-7 -2 -19 -2 -25 0 -7 3 -2 5 12 5 14 0 19 -2 13 -5z m2977 -12 c0
-10 -30 -24 -37 -17 -3 3 -2 9 2 15 8 13 35 15 35 2z m214 -31 l26 -9 -20 -39
c-19 -37 -24 -40 -74 -46 -69 -8 -86 -14 -86 -33 0 -8 -6 -13 -13 -10 -18 7
-63 -18 -48 -27 6 -4 11 -2 11 3 0 6 5 11 10 11 7 0 7 -7 -1 -21 l-11 -21 -24
23 c-22 21 -23 24 -8 40 14 16 14 18 -3 22 -10 3 1 5 23 6 33 1 43 5 47 21 4
17 10 20 34 13 44 -11 76 -9 81 6 2 8 0 11 -6 8 -13 -9 -36 19 -27 33 6 10 40
28 57 29 4 1 18 -3 32 -9z m-4104 -24 c0 -3 -4 -8 -10 -11 -5 -3 -10 -1 -10 4
0 6 5 11 10 11 6 0 10 -2 10 -4z m4846 -58 c40 -44 75 -98 118 -183 30 -61 37
-86 47 -191 12 -114 10 -155 -8 -154 -11 1 -74 131 -73 153 0 9 -4 25 -10 35
-5 9 -13 37 -19 62 -13 61 -55 173 -91 241 -50 95 -33 112 36 37z m-4551 32
c-11 -5 -33 -8 -50 -8 l-30 0 30 8 c17 4 39 8 50 8 l20 1 -20 -9z m3300 -7
c-4 -10 -8 -31 -11 -48 -4 -35 -14 -96 -18 -110 -2 -5 -6 -31 -11 -57 -4 -27
-11 -48 -15 -48 -4 0 -8 -6 -7 -12 0 -7 -1 -24 -2 -38 -1 -20 -3 -22 -11 -10
-8 12 -10 10 -11 -10 -1 -14 -1 -31 0 -39 2 -7 -3 -10 -9 -6 -6 4 -8 16 -4 27
3 11 2 18 -3 15 -13 -8 -11 76 2 86 6 4 5 10 -3 16 -11 7 -11 9 2 14 12 5 16
20 16 59 0 31 9 71 20 97 17 37 22 42 36 30 8 -7 14 -8 13 -3 -4 12 11 54 18
54 3 0 2 -8 -2 -17z m-3580 -13 c-3 -5 -16 -10 -28 -10 -18 0 -19 2 -7 10 20
13 43 13 35 0z m-61 -9 c9 -14 -22 -34 -59 -37 -48 -3 -46 19 3 33 50 14 50
14 56 4z m278 -23 c-5 -5 -20 -8 -33 -6 l-24 5 25 10 c28 12 47 6 32 -9z
m1001 2 c-3 -10 -11 -25 -19 -31 -11 -9 -14 -7 -14 9 0 16 20 38 37 42 0 0 -1
-9 -4 -20z m3021 -47 c41 -110 49 -181 25 -245 -10 -29 -19 -65 -19 -80 0 -16
-5 -28 -13 -28 -16 0 -43 -31 -52 -59 -3 -12 -15 -25 -25 -31 -10 -5 -21 -23
-25 -40 -4 -16 -11 -30 -16 -30 -5 0 -9 -13 -9 -30 0 -20 -5 -30 -15 -30 -9 0
-15 -9 -15 -22 -1 -13 -18 -41 -40 -63 -22 -22 -40 -43 -40 -47 0 -12 -60 -68
-101 -93 -31 -20 -40 -22 -72 -12 -40 13 -46 21 -22 31 8 3 15 12 15 20 0 10
6 13 15 10 10 -4 16 0 17 12 0 11 2 24 2 30 1 6 7 19 15 28 7 9 11 16 8 16 -7
0 13 73 22 80 7 6 56 107 96 200 15 36 36 81 45 100 10 19 21 51 25 70 4 19
24 67 46 107 21 40 39 79 39 87 0 9 8 31 17 51 26 55 47 46 77 -32z m-645 -87
c-17 -75 -34 -134 -37 -131 -3 2 10 65 29 139 18 75 35 134 37 131 2 -2 -11
-65 -29 -139z m-3539 108 c0 -3 -17 -12 -37 -21 -21 -8 -57 -24 -80 -34 -46
-21 -80 -24 -103 -9 -12 7 -8 10 15 10 29 1 29 1 8 13 l-22 12 27 12 c15 6 42
11 61 11 18 1 36 3 39 6 7 8 92 8 92 0z m260 -4 c0 -5 -7 -10 -15 -10 -8 0
-15 5 -15 10 0 6 7 10 15 10 8 0 15 -4 15 -10z m148 -11 c-8 -4 -37 -11 -66
-15 -44 -5 -52 -4 -52 9 0 11 12 17 43 19 57 4 94 -2 75 -13z m219 5 c-3 -3
-12 -4 -19 -1 -8 3 -5 6 6 6 11 1 17 -2 13 -5z m493 -30 c0 -8 -4 -14 -10 -14
-5 0 -10 9 -10 21 0 11 5 17 10 14 6 -3 10 -13 10 -21z m-872 4 c-3 -7 -20
-14 -39 -15 l-34 -2 30 14 c38 18 48 18 43 3z m3347 -68 c-9 -41 -17 -33 -9 9
4 17 9 30 11 27 3 -2 2 -19 -2 -36z m-3515 -11 c0 -5 -3 -9 -7 -10 -47 -5 -66
-9 -116 -28 -55 -21 -77 -21 -77 -1 0 13 31 28 90 43 53 14 110 11 110 -4z
m417 -15 c-3 -3 -12 -4 -19 -1 -8 3 -5 6 6 6 11 1 17 -2 13 -5z m-10 -48 c3
-3 -11 -13 -33 -22 -65 -27 -229 -6 -208 28 6 10 231 5 241 -6z m-287 0 c0 -8
-71 -12 -76 -4 -3 4 13 8 35 8 23 0 41 -2 41 -4z m-36 -43 c11 -11 -34 -30
-60 -25 -34 6 -30 20 9 25 17 2 35 5 38 5 3 1 9 -1 13 -5z m4831 -21 c14 -10
19 -92 6 -92 -6 0 -13 11 -16 25 -3 14 -7 36 -10 50 -5 25 1 31 20 17z m-1507
-70 c-6 -29 -13 -50 -16 -47 -2 2 1 27 8 55 7 28 14 49 16 47 3 -2 -1 -27 -8
-55z m-3445 33 c1 -6 -11 -11 -28 -13 -29 -2 -29 -2 -10 13 20 16 35 16 38 0z
m111 -20 c8 -8 26 -15 40 -15 16 0 26 -6 26 -15 0 -16 -7 -18 -60 -15 -72 5
-91 7 -97 14 -3 3 -17 6 -29 6 -13 0 -26 5 -30 11 -5 9 3 10 30 5 26 -5 43 -2
58 9 28 19 43 19 62 0z m136 5 c0 -5 -8 -10 -18 -10 -10 0 -23 -5 -29 -11 -9
-9 -11 -7 -8 7 2 11 4 20 4 22 3 7 51 0 51 -8z m-390 -20 c-13 -24 -8 -25 30
-5 29 15 50 6 27 -12 -16 -13 -76 -33 -96 -33 -13 1 -13 3 3 15 10 8 16 21 13
29 -7 16 1 26 20 26 11 0 11 -5 3 -20z m460 -34 c0 -2 -7 -6 -15 -10 -8 -3
-15 -1 -15 4 0 6 7 10 15 10 8 0 15 -2 15 -4z m-570 -26 c0 -5 -5 -10 -11 -10
-5 0 -7 5 -4 10 3 6 8 10 11 10 2 0 4 -4 4 -10z m3880 1 c0 -5 3 -18 6 -28 5
-16 4 -16 -10 1 -18 23 -20 36 -6 36 6 0 10 -4 10 -9z m-203 -23 c-3 -8 -6 -5
-6 6 -1 11 2 17 5 13 3 -3 4 -12 1 -19z m-3087 -18 c0 -11 -48 -25 -57 -16 -3
3 5 10 18 15 32 13 39 13 39 1z m3061 -107 c-17 -85 -40 -237 -55 -363 -2 -19
-2 6 0 55 2 50 15 149 29 220 33 178 37 196 42 192 2 -3 -5 -49 -16 -104z m76
85 c-3 -8 -6 -5 -6 6 -1 11 2 17 5 13 3 -3 4 -12 1 -19z m-3172 -38 c-34 -38
-202 -83 -205 -55 -1 9 178 73 209 74 11 1 10 -4 -4 -19z m2509 -159 c81 -102
99 -146 91 -216 -10 -84 -13 -90 -36 -61 -10 13 -19 32 -19 41 0 9 -25 71 -56
136 -49 104 -74 190 -55 189 3 -1 37 -40 75 -89z m-2641 54 c1 -5 -14 -11 -33
-13 -33 -2 -34 -2 -15 13 21 17 45 17 48 0z m1307 -10 c0 -3 -9 -16 -21 -28
l-21 -22 13 28 c11 23 29 37 29 22z m-1440 -24 c0 -12 -30 -22 -43 -14 -7 4
-3 9 9 14 26 10 34 10 34 0z m-141 -112 c-8 -5 -21 -9 -29 -9 -12 1 -11 4 4
15 10 8 23 12 29 8 5 -3 3 -9 -4 -14z m-59 -4 c-7 -8 -19 -15 -27 -15 -13 0
-13 3 -3 15 7 8 19 15 27 15 13 0 13 -3 3 -15z m270 -19 c0 -2 -7 -6 -15 -10
-8 -3 -15 -1 -15 4 0 6 7 10 15 10 8 0 15 -2 15 -4z m2890 -92 c0 -8 -4 -12
-10 -9 -5 3 -10 10 -10 16 0 5 5 9 10 9 6 0 10 -7 10 -16z m-3206 -52 c-16
-16 -42 -32 -59 -36 l-30 -7 25 21 c14 11 30 20 36 20 6 0 17 7 24 15 7 8 17
15 23 15 6 0 -2 -13 -19 -28z m3274 16 c7 -7 12 -16 12 -20 0 -15 -27 -8 -45
12 -18 19 -17 20 1 20 11 0 25 -5 32 -12z m242 -278 c0 -49 -3 -90 -7 -90 -5
0 -7 40 -5 90 2 49 5 90 8 90 2 0 4 -40 4 -90z m-1290 64 c0 35 92 -155 106
-219 3 -16 13 -45 21 -63 8 -19 12 -36 9 -39 -6 -7 -46 57 -46 75 0 6 -4 12
-9 12 -15 0 -68 102 -79 155 -7 28 -14 61 -18 75 -4 20 -3 22 5 10 6 -8 11
-11 11 -6z m-1879 -57 c-10 -9 -11 -8 -5 6 3 10 9 15 12 12 3 -3 0 -11 -7 -18z
m3046 -84 c-3 -10 -5 -4 -5 12 0 17 2 24 5 18 2 -7 2 -21 0 -30z m110 -70 c-3
-10 -5 -4 -5 12 0 17 2 24 5 18 2 -7 2 -21 0 -30z m-3280 -229 c-3 -3 -12 -4
-19 -1 -8 3 -5 6 6 6 11 1 17 -2 13 -5z m3200 -306 c-3 -8 -6 -5 -6 6 -1 11 2
17 5 13 3 -3 4 -12 1 -19z m2583 -57 c0 -12 -20 -25 -27 -18 -7 7 6 27 18 27
5 0 9 -4 9 -9z"/>
<path d="M2887 5030 c-3 -11 -1 -23 5 -26 11 -7 14 -5 22 24 5 16 3 22 -7 22
-8 0 -17 -9 -20 -20z"/>
<path d="M2640 4376 c0 -2 11 -6 25 -8 13 -3 22 -1 19 3 -5 9 -44 13 -44 5z"/>
<path d="M2636 4349 c3 -5 -11 -9 -31 -9 -48 0 -97 -22 -123 -55 -27 -34 -29
-82 -4 -89 37 -10 109 -19 138 -17 45 3 51 -16 12 -33 l-33 -14 41 -1 c44 -1
114 23 114 39 0 5 -12 13 -27 17 l-28 7 34 8 c25 7 31 12 22 21 -16 16 -14 30
4 23 23 -8 18 20 -7 44 -12 11 -34 26 -50 32 -15 7 -28 16 -28 19 0 4 -9 9
-20 12 -11 3 -18 1 -14 -4z m-91 -39 c3 -6 -4 -10 -17 -10 -18 0 -20 2 -8 10
19 12 18 12 25 0z m8 -75 c-3 -9 -8 -14 -10 -11 -3 3 -2 9 2 15 9 16 15 13 8
-4z m111 0 c-4 -8 -8 -15 -10 -15 -2 0 -4 7 -4 15 0 8 4 15 10 15 5 0 7 -7 4
-15z"/>
<path d="M2650 3858 c0 -17 38 -78 48 -78 12 0 52 30 52 40 0 11 -67 50 -86
50 -8 0 -14 -6 -14 -12z"/>
<path d="M2827 3039 c7 -7 15 -10 18 -7 3 3 -2 9 -12 12 -14 6 -15 5 -6 -5z"/>
<path d="M916 3633 c-12 -12 -6 -33 9 -33 8 0 15 6 15 14 0 17 -14 28 -24 19z"/>
<path d="M1070 3610 c0 -11 4 -20 9 -20 5 0 7 9 4 20 -3 11 -7 20 -9 20 -2 0
-4 -9 -4 -20z"/>
<path d="M1180 3601 c0 -12 5 -21 10 -21 6 0 10 6 10 14 0 8 -4 18 -10 21 -5
3 -10 -3 -10 -14z"/>
<path d="M1506 3604 c-9 -24 -7 -44 5 -44 5 0 7 5 4 10 -4 6 -2 17 5 25 6 8 7
16 2 19 -6 3 -13 -1 -16 -10z"/>
<path d="M1271 3584 c0 -11 3 -14 6 -6 3 7 2 16 -1 19 -3 4 -6 -2 -5 -13z"/>
<path d="M1330 3584 c0 -8 5 -12 10 -9 6 4 8 11 5 16 -9 14 -15 11 -15 -7z"/>
<path d="M1462 3580 c0 -14 2 -19 5 -12 2 6 2 18 0 25 -3 6 -5 1 -5 -13z"/>
<path d="M1401 3574 c0 -11 3 -14 6 -6 3 7 2 16 -1 19 -3 4 -6 -2 -5 -13z"/>
<path d="M1550 3570 c0 -11 5 -20 10 -20 6 0 10 9 10 20 0 11 -4 20 -10 20 -5
0 -10 -9 -10 -20z"/>
<path d="M1612 3570 c0 -14 2 -19 5 -12 2 6 2 18 0 25 -3 6 -5 1 -5 -13z"/>
<path d="M1661 3564 c0 -11 3 -14 6 -6 3 7 2 16 -1 19 -3 4 -6 -2 -5 -13z"/>
<path d="M545 3539 c-11 -17 0 -20 21 -4 17 13 17 14 2 15 -9 0 -20 -5 -23
-11z"/>
<path d="M1005 3530 c-3 -5 1 -10 10 -10 9 0 13 5 10 10 -3 6 -8 10 -10 10 -2
0 -7 -4 -10 -10z"/>
<path d="M1125 3520 c3 -5 8 -10 11 -10 2 0 4 5 4 10 0 6 -5 10 -11 10 -5 0
-7 -4 -4 -10z"/>
<path d="M1250 3520 c-13 -8 -12 -10 3 -10 9 0 17 5 17 10 0 12 -1 12 -20 0z"/>
<path d="M1170 3516 c0 -2 7 -7 16 -10 8 -3 12 -2 9 4 -6 10 -25 14 -25 6z"/>
<path d="M1320 3510 c0 -5 5 -10 11 -10 5 0 7 5 4 10 -3 6 -8 10 -11 10 -2 0
-4 -4 -4 -10z"/>
<path d="M1380 3506 c0 -2 7 -6 15 -10 8 -3 15 -1 15 4 0 6 -7 10 -15 10 -8 0
-15 -2 -15 -4z"/>
<path d="M1450 3500 c0 -5 5 -10 11 -10 5 0 7 5 4 10 -3 6 -8 10 -11 10 -2 0
-4 -4 -4 -10z"/>
<path d="M914 3486 c-8 -9 -7 -15 2 -23 9 -9 13 -9 17 1 8 20 -6 36 -19 22z"/>
<path d="M1187 3475 c-8 -19 4 -49 21 -53 9 -2 12 7 10 30 -3 34 -22 48 -31
23z"/>
<path d="M705 3463 c-36 -5 -59 -23 -29 -23 41 0 93 13 88 21 -3 5 -11 8 -17
8 -7 -1 -25 -4 -42 -6z"/>
<path d="M1510 3435 c0 -8 7 -11 19 -8 10 3 22 0 26 -7 5 -8 10 -8 21 1 11 9
17 9 28 0 9 -8 16 -9 21 -2 6 11 -42 28 -51 18 -3 -3 -19 -1 -35 3 -22 7 -29
5 -29 -5z"/>
<path d="M921 3424 c0 -11 3 -14 6 -6 3 7 2 16 -1 19 -3 4 -6 -2 -5 -13z"/>
<path d="M1640 3426 c0 -9 30 -14 35 -6 4 6 -3 10 -14 10 -12 0 -21 -2 -21 -4z"/>
<path d="M1711 3421 c-9 -6 -2 -10 23 -13 37 -4 49 5 20 16 -20 8 -26 7 -43
-3z"/>
<path d="M1845 3410 c4 -6 11 -8 16 -5 14 9 11 15 -7 15 -8 0 -12 -5 -9 -10z"/>
<path d="M916 3383 c-12 -12 -6 -33 9 -33 8 0 15 6 15 14 0 17 -14 28 -24 19z"/>
<path d="M725 3338 c2 -10 -1 -20 -6 -23 -14 -9 0 -25 22 -25 12 0 19 7 19 19
0 11 2 25 5 33 3 8 -3 13 -19 13 -17 0 -23 -5 -21 -17z"/>
<path d="M923 3333 c-15 -5 -18 -43 -4 -43 5 0 11 10 14 22 7 26 6 27 -10 21z"/>
<path d="M479 3313 c-13 -16 -12 -17 4 -4 9 7 17 15 17 17 0 8 -8 3 -21 -13z"/>
<path d="M875 3290 c3 -5 8 -10 11 -10 2 0 4 5 4 10 0 6 -5 10 -11 10 -5 0 -7
-4 -4 -10z"/>
<path d="M950 3290 c0 -5 5 -10 10 -10 6 0 10 5 10 10 0 6 -4 10 -10 10 -5 0
-10 -4 -10 -10z"/>
<path d="M446 2915 c4 -8 7 -15 9 -15 2 0 5 7 9 15 3 9 0 15 -9 15 -9 0 -12
-6 -9 -15z"/>
<path d="M445 2880 c-3 -5 1 -10 9 -10 9 0 16 5 16 10 0 6 -4 10 -9 10 -6 0
-13 -4 -16 -10z"/>
<path d="M460 2850 c0 -5 7 -10 15 -10 8 0 15 5 15 10 0 6 -7 10 -15 10 -8 0
-15 -4 -15 -10z"/>
<path d="M450 2809 c0 -5 5 -7 10 -4 6 3 10 8 10 11 0 2 -4 4 -10 4 -5 0 -10
-5 -10 -11z"/>
<path d="M460 2769 c-8 -4 -27 -12 -42 -18 -16 -6 -28 -16 -28 -22 0 -6 6 -9
13 -6 47 18 57 17 77 -3 12 -12 25 -18 28 -14 4 3 1 9 -6 11 -21 8 -2 23 29
23 18 0 29 5 29 14 0 8 8 16 17 18 10 2 -10 4 -43 4 -33 0 -66 -3 -74 -7z"/>
<path d="M405 2680 c-3 -5 -2 -10 4 -10 5 0 13 5 16 10 3 6 2 10 -4 10 -5 0
-13 -4 -16 -10z"/>
<path d="M1620 2648 c-22 -10 -23 -12 -7 -15 26 -7 87 6 87 17 0 13 -49 12
-80 -2z"/>
<path d="M425 2630 c3 -5 10 -10 16 -10 5 0 9 5 9 10 0 6 -7 10 -16 10 -8 0
-12 -4 -9 -10z"/>
<path d="M485 2610 c-18 -8 -17 -9 7 -9 15 -1 30 4 33 9 7 12 -12 12 -40 0z"/>
<path d="M1385 2600 c-25 -11 1 -11 35 0 20 6 21 8 5 8 -11 0 -29 -3 -40 -8z"/>
<path d="M1138 2503 c41 -8 17 -27 -38 -31 -29 -1 -60 -7 -69 -12 -14 -8 -13
-9 4 -8 11 1 42 -2 68 -6 33 -6 52 -5 60 3 6 6 40 12 77 12 36 1 53 4 38 6
-26 4 -40 23 -17 23 5 0 8 4 5 9 -4 5 -39 9 -79 9 -39 -1 -62 -3 -49 -5z"/>
<path d="M1725 2470 c3 -5 14 -10 23 -10 15 0 15 2 2 10 -20 13 -33 13 -25 0z"/>
<path d="M1450 2460 c-34 -7 -34 -7 13 -9 26 0 47 4 47 9 0 11 -8 11 -60 0z"/>
<path d="M708 2448 c9 -9 15 -9 24 0 9 9 7 12 -12 12 -19 0 -21 -3 -12 -12z"/>
<path d="M870 2410 c0 -5 12 -10 26 -10 14 0 23 4 19 10 -3 6 -15 10 -26 10
-10 0 -19 -4 -19 -10z"/>
<path d="M1635 2394 c-16 -9 -47 -16 -68 -16 -21 -1 -40 -5 -44 -11 -4 -6 20
-7 70 -3 96 8 112 14 96 32 -14 18 -17 17 -54 -2z"/>
<path d="M1028 2383 c6 -2 18 -2 25 0 6 3 1 5 -13 5 -14 0 -19 -2 -12 -5z"/>
<path d="M1105 2380 c-18 -8 -17 -9 7 -9 15 -1 30 -5 33 -11 3 -5 21 -10 39
-10 17 0 36 -4 42 -10 5 -5 32 -7 62 -3 51 6 52 6 26 19 -14 8 -39 14 -55 14
-16 0 -29 5 -29 10 0 12 -97 12 -125 0z"/>
<path d="M720 2318 l-25 -10 35 -13 c42 -16 110 -19 110 -5 0 6 -10 10 -23 10
-13 0 -32 7 -43 15 -22 17 -22 17 -54 3z"/>
<path d="M1140 2320 c-11 -7 -4 -10 25 -9 31 0 36 2 20 9 -26 11 -28 11 -45 0z"/>
<path d="M931 2310 c9 -5 28 -6 45 0 27 8 26 8 -16 9 -32 0 -40 -2 -29 -9z"/>
<path d="M381 2286 c-15 -18 -7 -22 47 -25 47 -2 55 10 17 27 -34 16 -50 15
-64 -2z"/>
<path d="M610 2280 c0 -5 6 -10 13 -10 6 0 23 -3 37 -7 22 -6 24 -5 11 10 -15
18 -61 23 -61 7z"/>
<path d="M900 2280 c-11 -7 1 -10 40 -10 39 0 51 3 40 10 -8 5 -26 10 -40 10
-14 0 -32 -5 -40 -10z"/>
<path d="M530 2270 c-12 -8 -9 -10 13 -10 16 0 26 4 22 10 -8 12 -16 12 -35 0z"/>
<path d="M850 2270 c0 -5 5 -10 10 -10 6 0 10 5 10 10 0 6 -4 10 -10 10 -5 0
-10 -4 -10 -10z"/>
<path d="M1299 2246 c-2 -2 -33 -7 -69 -10 -89 -9 -392 -35 -409 -36 -20 0 -2
-17 24 -22 17 -4 16 -7 -10 -17 -23 -10 -37 -10 -63 -1 -29 10 -34 9 -52 -12
-18 -23 -18 -23 5 -26 42 -6 139 17 155 37 27 32 70 41 190 39 84 -1 134 3
185 16 72 19 105 36 69 36 -12 0 -23 -2 -25 -4z m-544 -106 c-3 -5 -13 -10
-21 -10 -8 0 -12 5 -9 10 3 6 13 10 21 10 8 0 12 -4 9 -10z"/>
<path d="M630 2230 c-20 -6 -16 -8 23 -9 30 -1 46 3 42 9 -7 11 -29 11 -65 0z"/>
<path d="M728 2233 c6 -2 18 -2 25 0 6 3 1 5 -13 5 -14 0 -19 -2 -12 -5z"/>
<path d="M3155 2800 c3 -5 12 -7 20 -3 21 7 19 13 -6 13 -11 0 -18 -4 -14 -10z"/>
<path d="M2370 2560 c0 -5 7 -10 16 -10 8 0 12 5 9 10 -3 6 -10 10 -16 10 -5
0 -9 -4 -9 -10z"/>
<path d="M2799 2276 c27 -29 33 -32 25 -13 -2 7 -14 19 -27 26 -21 13 -21 12
2 -13z"/>
<path d="M2600 2196 c0 -3 25 -19 55 -36 30 -17 55 -38 55 -46 0 -16 27 -19
32 -3 2 6 33 -2 78 -20 86 -36 80 -34 80 -21 0 6 -6 10 -14 10 -7 0 -20 7 -27
17 -29 35 -259 123 -259 99z"/>
<path d="M2900 2182 c0 -12 19 -26 26 -19 2 2 -2 10 -11 17 -9 8 -15 8 -15 2z"/>
<path d="M2415 2078 c-4 -9 -5 -37 -3 -64 3 -45 4 -47 11 -19 5 17 13 38 18
49 8 14 7 22 -5 34 -14 14 -16 14 -21 0z"/>
<path d="M2265 2030 c-27 -28 -28 -31 -12 -47 9 -10 27 -31 40 -47 l24 -30 5
32 c4 25 -1 39 -20 59 -20 22 -22 30 -13 45 16 26 9 22 -24 -12z"/>
<path d="M2905 2040 c3 -5 8 -10 11 -10 2 0 4 5 4 10 0 6 -5 10 -11 10 -5 0
-7 -4 -4 -10z"/>
<path d="M2755 1992 c15 -15 72 -25 80 -13 3 6 0 11 -8 11 -8 0 -30 3 -48 6
-23 5 -31 3 -24 -4z"/>
<path d="M2880 1969 c0 -11 5 -17 10 -14 6 3 10 13 10 21 0 8 -4 14 -10 14 -5
0 -10 -9 -10 -21z"/>
<path d="M2401 1931 c-8 -6 -9 -11 -3 -15 6 -3 14 -1 17 5 9 14 2 20 -14 10z"/>
<path d="M2354 1865 c-4 -8 -2 -21 4 -28 5 -6 13 -27 17 -44 7 -34 22 -42 43
-21 8 8 8 17 1 30 -5 10 -8 22 -5 27 6 9 -30 51 -45 51 -5 0 -12 -7 -15 -15z"/>
<path d="M2396 1734 c-4 -9 -4 -19 -1 -22 2 -3 7 3 11 12 4 9 4 19 1 22 -2 3
-7 -3 -11 -12z"/>
<path d="M3219 1635 c-5 -95 12 -153 57 -196 30 -28 30 -26 0 52 -13 35 -27
82 -30 104 -10 56 -25 79 -27 40z"/>
<path d="M2427 1532 c-11 -12 -13 -22 -7 -32 15 -23 12 -36 -4 -15 -12 17 -14
16 -18 -17 -3 -28 0 -35 12 -33 8 2 18 4 22 4 3 1 9 19 13 40 4 22 13 42 21
45 8 3 14 10 14 16 0 16 -36 11 -53 -8z"/>
<path d="M3502 1070 c0 -14 2 -19 5 -12 2 6 2 18 0 25 -3 6 -5 1 -5 -13z"/>
<path d="M2946 655 c-3 -9 0 -15 9 -15 16 0 20 16 6 24 -5 3 -11 -1 -15 -9z"/>
<path d="M2987 653 c-11 -10 -8 -53 3 -53 6 0 10 6 10 14 0 8 3 21 6 30 6 16
-7 22 -19 9z"/>
<path d="M5173 3383 c-10 -16 -29 -40 -43 -54 -14 -14 -37 -45 -53 -68 -19
-28 -37 -43 -57 -48 -17 -3 -30 -10 -30 -15 0 -5 6 -6 13 -2 9 5 9 4 0 -6 -6
-7 -9 -19 -6 -26 9 -25 32 -15 41 19 8 29 12 32 45 29 32 -2 37 0 43 23 3 14
12 29 20 33 19 11 94 113 94 129 0 25 -49 14 -67 -14z"/>
<path d="M8 3299 c-5 -4 4 -8 20 -11 17 -2 29 -1 26 3 -2 4 2 10 8 12 7 3 0 5
-15 4 -15 -1 -33 -4 -39 -8z"/>
<path d="M0 3260 c0 -5 7 -7 15 -4 19 8 19 14 0 14 -8 0 -15 -4 -15 -10z"/>
<path d="M5218 3263 c7 -3 16 -2 19 1 4 3 -2 6 -13 5 -11 0 -14 -3 -6 -6z"/>
<path d="M5420 3230 c-13 -8 -13 -10 2 -10 9 0 24 -3 32 -6 12 -5 15 -2 10 10
-7 18 -22 20 -44 6z"/>
<path d="M4953 3194 c-3 -8 -1 -20 6 -27 8 -8 11 -4 11 16 0 30 -7 35 -17 11z"/>
<path d="M4700 3189 c0 -5 5 -7 10 -4 6 3 10 8 10 11 0 2 -4 4 -10 4 -5 0 -10
-5 -10 -11z"/>
<path d="M4543 3175 c0 -11 11 -15 41 -15 37 0 39 1 20 15 -25 19 -61 19 -61
0z"/>
<path d="M4535 3099 c-10 -15 3 -25 16 -12 7 7 7 13 1 17 -6 3 -14 1 -17 -5z"/>
<path d="M64 2971 c4 -5 7 -26 8 -46 2 -47 28 -48 28 0 0 25 -6 37 -21 46 -14
7 -19 7 -15 0z"/>
<path d="M67 2873 c-24 -23 24 -62 51 -41 18 15 15 23 -13 36 -30 14 -30 14
-38 5z"/>
<path d="M79 2794 c-9 -11 -9 -18 -2 -22 12 -8 13 -62 1 -62 -4 0 -5 -6 -2
-13 3 -8 -7 -17 -23 -24 -26 -9 -24 -10 25 -11 28 0 52 4 52 9 0 5 -6 9 -14 9
-9 0 -12 7 -9 20 3 11 12 20 20 20 10 0 11 5 5 18 -5 9 -7 23 -5 30 3 6 0 12
-6 12 -6 0 -11 7 -11 15 0 19 -14 19 -31 -1z"/>
<path d="M83 2617 c-3 -5 1 -13 8 -18 11 -7 10 -11 -6 -23 -19 -15 -18 -15 15
-10 60 10 65 13 45 28 -10 7 -15 18 -11 24 5 8 -2 11 -19 10 -15 -2 -29 -6
-32 -11z"/>
<path d="M1015 2010 c-15 -7 -9 -9 28 -11 26 -1 52 -2 59 -3 6 -1 13 5 16 12
4 14 -71 16 -103 2z"/>
<path d="M1175 1969 c-4 -6 -5 -13 -2 -16 7 -7 27 6 27 18 0 12 -17 12 -25 -2z"/>
<path d="M1038 1957 c15 -7 26 -7 33 0 7 7 -1 10 -23 10 -31 1 -32 0 -10 -10z"/>
<path d="M3995 1781 c-6 -11 9 -23 19 -14 9 9 7 23 -3 23 -6 0 -12 -4 -16 -9z"/>
<path d="M3960 1760 c-8 -5 -11 -12 -7 -16 4 -4 13 -2 19 4 15 15 7 24 -12 12z"/>
<path d="M515 880 c-3 -5 -1 -10 4 -10 6 0 11 5 11 10 0 6 -2 10 -4 10 -3 0
-8 -4 -11 -10z"/>
<path d="M526 837 c3 -10 9 -15 12 -12 3 3 0 11 -7 18 -10 9 -11 8 -5 -6z"/>
<path d="M747 763 c-9 -9 -9 -24 1 -20 4 1 8 -2 9 -8 0 -5 -2 -9 -6 -8 -4 1
-8 -5 -8 -13 0 -8 10 -14 25 -14 18 0 23 4 18 16 -3 9 -6 24 -6 35 0 18 -20
26 -33 12z"/>
<path d="M530 577 c0 -34 -6 -53 -21 -68 -30 -30 -22 -101 14 -129 27 -21 36
-63 18 -75 -10 -6 40 -128 63 -155 7 -8 18 -30 24 -48 9 -27 9 -34 -4 -39 -16
-6 -64 -50 -64 -58 0 -3 11 -5 25 -5 16 0 36 11 50 28 l24 27 1 -27 0 -28 172
0 172 0 -29 28 c-17 15 -46 46 -66 68 -20 21 -48 47 -62 56 -35 24 -127 164
-127 194 0 15 -7 27 -17 30 -62 20 -96 62 -129 160 -9 27 -23 58 -30 69 -13
18 -14 15 -14 -28z"/>
</g>
</svg>
